<svg xmlns="http://www.w3.org/2000/svg" viewBox="0 0 512 512" role="img" aria-label="סיכומית">
  <rect width="512" height="512" rx="96" fill="#183c35"/>
  <path fill="#f7f7f2" d="M146 112h220c22 0 40 18 40 40v236c0 7-6 12-12 12H146c-22 0-40-18-40-40V152c0-22 18-40 40-40Z"/>
  <path fill="#d9eadf" d="M158 154h196c8 0 14 6 14 14s-6 14-14 14H158c-8 0-14-6-14-14s6-14 14-14Zm0 70h196c8 0 14 6 14 14s-6 14-14 14H158c-8 0-14-6-14-14s6-14 14-14Zm0 70h118c8 0 14 6 14 14s-6 14-14 14H158c-8 0-14-6-14-14s6-14 14-14Z"/>
  <path fill="#183c35" d="M406 388H158c-10 0-18-8-18-18V152c0-7 2-14 5-20-22 1-39 18-39 40v208c0 22 18 40 40 40h248c7 0 12-5 12-12v-20Z" opacity=".18"/>
</svg>
